PathFileType	4	(X/Y/Z)	C:\Users\italobelli\Desktop\GitHub\PTbot_officialCBL\Personal_Results\FLX01_noisy1.trc
DataRate	CameraRate	NumFrames	NumMarkers	Units	OrigDataRate	OrigDataStartFrame	OrigNumFrames
106.533333	106.533333	25	9	m	106.533333	1	800
Frame#	Time		gu		centelbow		EpL		centpxt8		centijc7		ij		ts		aa		ai
			X1	Y1	Z1	X2	Y2	Z2	X3	Y3	Z3	X4	Y4	Z4	X5	Y5	Z5	X6	Y6	Z6	X7	Y7	Z7	X8	Y8	Z8	X9	Y9	Z9

1	0	-0.080285	-0.017057	0.16684	-0.11086	-0.26174	0.17976	-0.094306	-0.25808	0.20719	-0.046816	-0.15316	-0.008669	-0.046816	0.031938	-0.008669	0	0	0	-0.13667	0.025119	0.050045	-0.11176	0.019443	0.16654	-0.15067	-0.087493	0.052889
2	0.0093867	-0.080266	-0.017066	0.16687	-0.11146	-0.26184	0.17946	-0.094875	-0.25826	0.2069	-0.046816	-0.15316	-0.008669	-0.046816	0.031938	-0.008669	0	0	0	-0.13662	0.025145	0.050054	-0.11175	0.019445	0.16656	-0.15063	-0.087467	0.052873
3	0.018773	-0.080246	-0.017075	0.16691	-0.11205	-0.26193	0.17916	-0.095426	-0.25842	0.2066	-0.046816	-0.15316	-0.008669	-0.046816	0.031938	-0.008669	0	0	0	-0.13657	0.025168	0.050063	-0.11173	0.019446	0.16658	-0.1506	-0.087442	0.05286
4	0.02816	-0.080224	-0.017085	0.16694	-0.11261	-0.26201	0.17886	-0.095957	-0.25857	0.20631	-0.046816	-0.15316	-0.008669	-0.046816	0.031938	-0.008669	0	0	0	-0.13651	0.02519	0.050073	-0.11172	0.019447	0.1666	-0.15056	-0.087419	0.05285
5	0.037547	-0.080201	-0.017096	0.16698	-0.11315	-0.26209	0.17857	-0.096467	-0.25871	0.20602	-0.046816	-0.15316	-0.008669	-0.046816	0.031938	-0.008669	0	0	0	-0.13646	0.02521	0.050083	-0.1117	0.019447	0.16662	-0.15053	-0.087398	0.052842
6	0.046934	-0.080176	-0.017108	0.16701	-0.11367	-0.26215	0.17827	-0.096957	-0.25883	0.20574	-0.046816	-0.15316	-0.008669	-0.046816	0.031938	-0.008669	0	0	0	-0.13641	0.025228	0.050094	-0.11168	0.019446	0.16664	-0.15049	-0.087379	0.052836
7	0.05632	-0.080149	-0.01712	0.16704	-0.11416	-0.2622	0.17798	-0.097425	-0.25894	0.20545	-0.046816	-0.15316	-0.008669	-0.046816	0.031938	-0.008669	0	0	0	-0.13637	0.025244	0.050106	-0.11167	0.019445	0.16666	-0.15046	-0.087361	0.052833
8	0.065707	-0.080121	-0.017133	0.16707	-0.11464	-0.26225	0.17769	-0.097871	-0.25904	0.20517	-0.046816	-0.15316	-0.008669	-0.046816	0.031938	-0.008669	0	0	0	-0.13632	0.025258	0.050118	-0.11165	0.019444	0.16668	-0.15043	-0.087345	0.052832
9	0.075094	-0.080092	-0.017146	0.1671	-0.11508	-0.26228	0.17741	-0.098295	-0.25912	0.2049	-0.046816	-0.15316	-0.008669	-0.046816	0.031938	-0.008669	0	0	0	-0.13627	0.025271	0.050131	-0.11163	0.019442	0.1667	-0.1504	-0.087331	0.052833
10	0.084481	-0.080061	-0.017161	0.16713	-0.11551	-0.26231	0.17712	-0.098696	-0.2592	0.20462	-0.046816	-0.15316	-0.008669	-0.046816	0.031938	-0.008669	0	0	0	-0.13623	0.025281	0.050145	-0.11161	0.019439	0.16672	-0.15037	-0.087318	0.052836
11	0.093867	-0.080028	-0.017175	0.16716	-0.1159	-0.26233	0.17685	-0.099073	-0.25926	0.20435	-0.046816	-0.15316	-0.008669	-0.046816	0.031938	-0.008669	0	0	0	-0.13618	0.02529	0.050159	-0.11159	0.019436	0.16674	-0.15035	-0.087306	0.052841
12	0.10325	-0.079994	-0.017191	0.16719	-0.11628	-0.26234	0.17657	-0.099426	-0.25931	0.20409	-0.046816	-0.15316	-0.008669	-0.046816	0.031938	-0.008669	0	0	0	-0.13614	0.025298	0.050173	-0.11157	0.019432	0.16676	-0.15032	-0.087297	0.052849
13	0.11264	-0.079959	-0.017206	0.16722	-0.11662	-0.26234	0.17631	-0.099754	-0.25935	0.20383	-0.046816	-0.15316	-0.008669	-0.046816	0.031938	-0.008669	0	0	0	-0.1361	0.025303	0.050188	-0.11155	0.019428	0.16678	-0.1503	-0.087288	0.052858
14	0.12203	-0.079923	-0.017223	0.16724	-0.11694	-0.26233	0.17604	-0.10006	-0.25938	0.20358	-0.046816	-0.15316	-0.008669	-0.046816	0.031938	-0.008669	0	0	0	-0.13606	0.025308	0.050204	-0.11153	0.019424	0.1668	-0.15027	-0.087282	0.05287
15	0.13141	-0.079885	-0.01724	0.16727	-0.11723	-0.26232	0.17578	-0.10033	-0.2594	0.20333	-0.046816	-0.15316	-0.008669	-0.046816	0.031938	-0.008669	0	0	0	-0.13602	0.02531	0.05022	-0.11151	0.019419	0.16682	-0.15025	-0.087276	0.052883
16	0.1408	-0.079846	-0.017257	0.16729	-0.11749	-0.2623	0.17553	-0.10059	-0.25941	0.20308	-0.046816	-0.15316	-0.008669	-0.046816	0.031938	-0.008669	0	0	0	-0.13598	0.025311	0.050236	-0.11149	0.019413	0.16683	-0.15023	-0.087272	0.052898
17	0.15019	-0.079805	-0.017275	0.16732	-0.11773	-0.26228	0.17529	-0.10081	-0.25941	0.20285	-0.046816	-0.15316	-0.008669	-0.046816	0.031938	-0.008669	0	0	0	-0.13595	0.025311	0.050253	-0.11147	0.019408	0.16685	-0.15021	-0.08727	0.052914
18	0.15957	-0.079764	-0.017293	0.16734	-0.11793	-0.26224	0.17505	-0.101	-0.2594	0.20261	-0.046816	-0.15316	-0.008669	-0.046816	0.031938	-0.008669	0	0	0	-0.13591	0.025309	0.05027	-0.11145	0.019401	0.16687	-0.15019	-0.087269	0.052932
19	0.16896	-0.079721	-0.017312	0.16737	-0.11811	-0.2622	0.17481	-0.10117	-0.25938	0.20239	-0.046816	-0.15316	-0.008669	-0.046816	0.031938	-0.008669	0	0	0	-0.13588	0.025306	0.050288	-0.11142	0.019395	0.16689	-0.15017	-0.087269	0.052952
20	0.17835	-0.079677	-0.017331	0.16739	-0.11826	-0.26216	0.17459	-0.10131	-0.25935	0.20217	-0.046816	-0.15316	-0.008669	-0.046816	0.031938	-0.008669	0	0	0	-0.13585	0.025301	0.050305	-0.1114	0.019388	0.16691	-0.15016	-0.087271	0.052973
21	0.18773	-0.079632	-0.01735	0.16742	-0.11837	-0.26211	0.17437	-0.10142	-0.25931	0.20196	-0.046816	-0.15316	-0.008669	-0.046816	0.031938	-0.008669	0	0	0	-0.13582	0.025296	0.050324	-0.11138	0.019381	0.16692	-0.15014	-0.087274	0.052996
22	0.19712	-0.079585	-0.01737	0.16744	-0.11846	-0.26205	0.17416	-0.1015	-0.25927	0.20176	-0.046816	-0.15316	-0.008669	-0.046816	0.031938	-0.008669	0	0	0	-0.13579	0.025288	0.050342	-0.11135	0.019374	0.16694	-0.15013	-0.087279	0.05302
23	0.20651	-0.079538	-0.01739	0.16746	-0.11851	-0.26199	0.17396	-0.10155	-0.25921	0.20157	-0.046816	-0.15316	-0.008669	-0.046816	0.031938	-0.008669	0	0	0	-0.13577	0.02528	0.050361	-0.11133	0.019366	0.16696	-0.15011	-0.087284	0.053045
24	0.21589	-0.079489	-0.017411	0.16748	-0.11853	-0.26193	0.17377	-0.10157	-0.25915	0.20138	-0.046816	-0.15316	-0.008669	-0.046816	0.031938	-0.008669	0	0	0	-0.13574	0.02527	0.050381	-0.1113	0.019358	0.16698	-0.1501	-0.087291	0.053071
25	0.22528	-0.07944	-0.017432	0.1675	-0.11852	-0.26185	0.17359	-0.10156	-0.25909	0.2012	-0.046816	-0.15316	-0.008669	-0.046816	0.031938	-0.008669	0	0	0	-0.13572	0.02526	0.0504	-0.11128	0.01935	0.16699	-0.15009	-0.0873	0.053099
